{"title":"Slaughter High (Uncut 86) fiveofseven zombiRG","uid":12624604,"size":969391145,"categoryP":"video","categoryS":"movies","magnet":"?xt=urn:btih:95d03fa91d43c56b4a095031284be17dcbd00c69&amp;dn=Slaughter+High+%28Uncut+86%29+fiveofseven+zombiRG&amp;tr=udp%3A%2F%2Ftracker.leechers-paradise.org%3A6969&amp;tr=udp%3A%2F%2Fzer0day.ch%3A1337&amp;tr=udp%3A%2F%2Fopen.demonii.com%3A1337&amp;tr=udp%3A%2F%2Ftracker.coppersurfer.tk%3A6969&amp;tr=udp%3A%2F%2Fexodus.desync.com%3A6969","seeders":2,"leechers":1,"uploader":"fiveofseven","files":3,"time":1445656639,"description":"Poster- \nhttps://yuq.me/users/25/564/j6cKLHMNwo.jpg \r\n \r\n\r\nPLOT - Eight different people are invited to their 10-year high school \r\nreunion at their now-closed down high school where a former student, \r\ndisfigured from a prank gone wrong, is there to seek revenge.\r\n\r\n \nhttps://yuq.me/users/25/564/lovyXUCLRd.png \r\n  \nhttps://yuq.me/users/25/564/SiJ5KfydEh.png \r\n  \nhttps://yuq.me/users/25/564/fSG546AQkE.png \r\n  \nhttps://yuq.me/users/25/564/ZpyKOwNe9x.png \r\n \r\n\r\n\r\nINFO\r\n\r\nEncoder: fiveofseven\r\nSource: DVD\r\nRating: R (Uncut)\r\nGenre: Horror\r\nSubtitles: English\r\n\r\nGeneral\r\nComplete name                            : Slaughter High 'April Fools Day' (Uncut fiveofseven zombiRG).mp4\r\nFormat                                   : MPEG-4\r\nFormat profile                           : Base Media\r\nCodec ID                                 : isom\r\nFile size                                : 919 MiB\r\nDuration                                 : 1h 26mn\r\nOverall bit rate mode                    : Variable\r\nOverall bit rate                         : 1 482 Kbps\r\nEncoded date                             : UTC 2006-02-03 09:05:11\r\nTagged date                              : UTC 2015-10-13 20:28:25\r\nWriting application                      : My MP4Box GUI 0.6.0.6 &lt;http://my-mp4box-gui.zymichost.com&gt;\r\nComment                                  : Encoded by fiveofseven\r\n\r\nVideo\r\nID                                       : 1\r\nFormat                                   : AVC\r\nFormat/Info                              : Advanced Video Codec\r\nFormat profile                           :   \r\nFormat settings, CABAC                   : Yes\r\nFormat settings, ReFrames                : 7 frames\r\nCodec ID                                 : avc1\r\nCodec ID/Info                            : Advanced Video Coding\r\nDuration                                 : 1h 26mn\r\nBit rate                                 : 1 350 Kbps\r\nMaximum bit rate                         : 7 606 Kbps\r\nWidth                                    : 704 pixels\r\nHeight                                   : 384 pixels\r\nDisplay aspect ratio                     : 1.85:1\r\nFrame rate mode                          : Constant\r\nFrame rate                               : 25.000 fps\r\nColor space                              : YUV\r\nChroma subsampling                       : 4:2:0\r\nBit depth                                : 8 bits\r\nScan type                                : Progressive\r\nBits/(Pixel*Frame)                       : 0.200\r\nStream size                              : 837 MiB (91%)\r\nTitle                                    : SH.mp4\r\nWriting library                          : x264 core 133 r2334 a3ac64b\r\nLanguage                                 : English\r\nEncoded date                             : UTC 2006-01-31 18:47:48\r\nTagged date                              : UTC 2006-02-03 09:06:15\r\n\r\nAudio\r\nID                                       : 2\r\nFormat                                   : AAC\r\nFormat/Info                              : Advanced Audio Codec\r\nFormat profile                           : LC\r\nCodec ID                                 : 40\r\nDuration                                 : 1h 26mn\r\nBit rate mode                            : Variable\r\nBit rate                                 : 128 Kbps\r\nMaximum bit rate                         : 131 Kbps\r\nChannel count                            : 2 channels\r\nChannel positions                        : Front: L R\r\nSampling rate                            : 48.0 KHz\r\nCompression mode                         : Lossy\r\nDelay relative to video                  : 80ms\r\nStream size                              : 79.4 MiB (9%)\r\nTitle                                    : aac.mp4\r\nLanguage                                 : English\r\nEncoded date                             : UTC 2006-02-03 09:06:10\r\nTagged date                              : UTC 2006-02-03 09:06:15\r\n\r\n\r\n\r\n  \nhttps://yuq.me/users/25/564/aegRQCBILx.png","torrent":{"xt":"urn:btih:95d03fa91d43c56b4a095031284be17dcbd00c69","amp;dn":"Slaughter+High+%28Uncut+86%29+fiveofseven+zombiRG","amp;tr":["udp%3A%2F%2Ftracker.leechers-paradise.org%3A6969","udp%3A%2F%2Fzer0day.ch%3A1337","udp%3A%2F%2Fopen.demonii.com%3A1337","udp%3A%2F%2Ftracker.coppersurfer.tk%3A6969","udp%3A%2F%2Fexodus.desync.com%3A6969"],"infoHash":"95d03fa91d43c56b4a095031284be17dcbd00c69","infoHashBuffer":{"type":"Buffer","data":[149,208,63,169,29,67,197,107,74,9,80,49,40,75,225,125,203,208,12,105]},"announce":[],"urlList":[]}}